<svg width="180" height="138" viewBox="0 0 180 138" fill="none" xmlns="http://www.w3.org/2000/svg">
<g clip-path="url(#clip0_287_284)">
<path d="M111.951 0.16865C111.332 0.247314 110.195 0.449594 109.418 0.606923C108.641 0.764252 107.448 1.0452 106.772 1.24748C106.097 1.43852 104.87 1.85432 104.071 2.16898C103.272 2.48363 101.999 3.04552 101.257 3.42761C100.514 3.79845 99.4779 4.38282 98.9488 4.71995C98.4197 5.05709 97.5417 5.66393 96.9788 6.07972C96.416 6.48428 95.4816 7.25969 94.8963 7.77663C94.3109 8.30481 93.5004 9.10269 93.0952 9.56344C92.6899 10.0242 92.1496 10.6535 91.9019 10.9569C91.643 11.2716 91.1589 11.9234 90.81 12.4178C90.461 12.9123 90.1796 13.3843 90.1683 13.4629C90.1683 13.5304 90.2021 13.5978 90.2471 13.5978C90.3034 13.5978 90.7649 13.2045 91.294 12.7213C91.8231 12.2493 92.5886 11.5975 92.9826 11.2828C93.3878 10.9569 94.2771 10.3388 94.9526 9.90057C95.628 9.45106 96.855 8.76556 97.6543 8.37223C98.4535 7.99015 99.6242 7.47321 100.243 7.24845C100.863 7.0237 102.056 6.66409 102.889 6.45057C103.722 6.24829 104.938 6.00106 105.59 5.91116C106.243 5.81002 107.358 5.69764 108.067 5.66393C109.013 5.60774 109.744 5.64145 110.769 5.7763C111.545 5.88868 112.682 6.06849 113.302 6.1921C113.921 6.31572 114.99 6.56295 115.666 6.74275C116.341 6.92256 117.512 7.28217 118.255 7.54064C118.998 7.79911 120.135 8.24862 120.787 8.52956C121.44 8.82174 122.42 9.30497 122.983 9.60839C123.545 9.91181 124.581 10.5411 125.29 11.0243C125.999 11.4963 127.17 12.3841 127.868 12.991C128.577 13.609 129.579 14.5867 130.097 15.1711C130.615 15.7555 131.347 16.677 131.741 17.2164C132.123 17.7558 132.731 18.7222 133.08 19.3515C133.44 19.9921 133.958 21.0597 134.228 21.7452C134.51 22.4307 134.859 23.4421 135.028 23.9928C135.185 24.5434 135.41 25.4874 135.534 26.0717C135.647 26.6561 135.804 27.6338 135.861 28.2406C135.928 28.8362 135.984 30.1286 135.984 31.1063C135.984 32.0727 135.906 33.4999 135.816 34.2753C135.726 35.0507 135.545 36.2307 135.41 36.9162C135.287 37.6017 135.005 38.7592 134.78 39.5009C134.566 40.2426 134.138 41.5125 133.812 42.3103C133.497 43.1082 132.832 44.5804 132.326 45.5693C131.819 46.5582 130.998 48.0304 130.502 48.8283C129.996 49.6261 129.118 50.9522 128.555 51.7501C127.981 52.548 127.024 53.8403 126.416 54.6157C125.819 55.3911 124.727 56.7284 124.007 57.5937C123.275 58.459 121.891 60.0548 120.923 61.1336C119.954 62.2125 117.309 64.9545 115.046 67.2133C112.784 69.4721 110.206 72.023 109.305 72.8884C108.405 73.7424 106.525 75.4618 105.14 76.698C103.744 77.9341 101.538 79.8558 100.221 80.9683C98.9038 82.0809 97.3616 83.3732 96.7875 83.8452C96.2133 84.3059 94.5698 85.632 93.1514 86.7783C91.733 87.9133 89.4254 89.7226 88.0295 90.7901C86.6336 91.8577 85.4404 92.7792 85.3841 92.8242C85.3165 92.8804 85.3165 92.9366 85.4066 92.9815C85.4854 93.0152 86.5323 92.4309 87.7143 91.6892C88.9075 90.9362 90.8437 89.6776 92.0257 88.8797C93.2077 88.0818 94.9638 86.8682 95.9432 86.1714C96.9225 85.4747 99.0164 83.9351 100.615 82.7551C102.202 81.5639 104.611 79.7434 105.962 78.7095C107.302 77.6644 108.641 76.6305 108.934 76.417C109.226 76.2035 110.476 75.1921 111.714 74.1807C112.964 73.1693 114.99 71.4612 116.228 70.4048C117.467 69.3485 119.268 67.7639 120.225 66.8986C121.181 66.0333 122.836 64.505 123.883 63.5048C124.93 62.4934 126.529 60.9089 127.418 59.9761C128.318 59.0322 129.5 57.7398 130.063 57.088C130.615 56.4362 131.639 55.2001 132.326 54.3348C133.013 53.4695 134.093 52.0535 134.712 51.1882C135.332 50.3229 136.086 49.2328 136.378 48.7721C136.682 48.3113 137.189 47.5022 137.504 46.974C137.819 46.4458 138.416 45.412 138.821 44.6703C139.226 43.9286 139.913 42.5351 140.352 41.5799C140.78 40.6247 141.377 39.1525 141.658 38.3209C141.951 37.4893 142.333 36.2532 142.514 35.5677C142.705 34.8822 142.896 34.0506 142.964 33.7134C143.031 33.3763 143.155 32.6683 143.245 32.1401C143.335 31.612 143.47 30.3758 143.538 29.3869C143.65 27.9822 143.639 27.1955 143.538 25.7908C143.459 24.8019 143.302 23.4421 143.178 22.7566C143.054 22.0711 142.829 21.0372 142.671 20.4529C142.514 19.8685 142.232 18.9245 142.041 18.3739C141.849 17.8232 141.422 16.7331 141.095 15.9577C140.757 15.1823 140.172 13.9911 139.789 13.3169C139.418 12.6314 138.81 11.6537 138.45 11.1255C138.09 10.5973 137.403 9.68705 136.908 9.10269C136.423 8.51832 135.568 7.60806 135.016 7.09113C134.465 6.57419 133.508 5.7763 132.889 5.31556C132.27 4.85481 131.279 4.19178 130.694 3.84341C130.108 3.49503 129.061 2.95562 128.386 2.62972C127.711 2.30383 126.54 1.83184 125.797 1.58461C125.054 1.32614 123.838 0.966532 123.095 0.786728C122.352 0.606923 121.215 0.37093 120.562 0.26979C119.707 0.134936 118.525 0.0675094 116.228 0.0450339C114.067 0.0337961 112.727 0.0675094 111.951 0.16865Z" fill="#0542A3"/>
<path fill-rule="evenodd" clip-rule="evenodd" d="M75.985 19.9024C76.6379 19.8912 77.651 19.9699 78.2364 20.071C78.8218 20.1721 79.6886 20.3744 80.1501 20.5093C80.6116 20.6554 81.985 21.1274 83.1895 21.5769C84.394 22.0264 85.97 22.5433 86.6792 22.7231C87.7036 22.9928 88.3114 23.0715 89.5497 23.1164C90.7767 23.1726 91.3734 23.1389 92.2514 22.9816C92.8705 22.8804 93.9625 22.6107 94.6717 22.3972C95.3809 22.1837 96.8555 21.7117 97.9362 21.3521C99.0169 20.9813 100.435 20.5542 101.088 20.3969C101.741 20.2396 102.754 20.071 103.34 20.0148C103.925 19.9699 104.792 19.9586 105.253 20.0036C105.715 20.0598 106.548 20.2059 107.111 20.3295C107.719 20.4756 108.619 20.8127 109.362 21.1723C110.184 21.5769 110.882 22.0264 111.445 22.4984C111.906 22.8917 112.559 23.566 112.886 23.993C113.201 24.4313 113.696 25.2067 113.966 25.7348C114.248 26.263 114.597 27.0946 114.765 27.5891C114.934 28.0835 115.171 28.9713 115.306 29.5557C115.52 30.4884 115.542 30.9941 115.553 33.4327C115.553 35.8601 115.52 36.422 115.306 37.5907C115.171 38.3324 114.878 39.5686 114.664 40.344C114.462 41.1194 114.09 42.2544 113.865 42.8725C113.629 43.4905 112.829 45.356 112.086 47.0304C111.355 48.7049 110.522 50.7277 110.263 51.5256C109.992 52.3234 109.689 53.4697 109.598 54.0541C109.497 54.6384 109.373 55.7285 109.306 56.4702C109.25 57.2119 109.193 60.3247 109.193 63.3814C109.193 66.4381 109.148 69.8993 108.979 73.2145L108.27 73.8663C107.876 74.2371 106.447 75.5182 105.084 76.7431C103.722 77.9568 101.527 79.8785 100.21 81.0023C98.9043 82.126 97.7561 83.0475 97.6773 83.0475C97.576 83.0475 97.5647 82.6317 97.6323 81.1146C97.6773 80.0471 97.8011 77.9344 97.9024 76.4173C97.9925 74.9002 98.0713 72.6751 98.0713 71.4726C98.0713 70.1466 97.9812 68.371 97.8462 66.9775C97.7223 65.7076 97.531 64.3479 97.4296 63.9433C97.3283 63.5388 97.1032 62.9094 96.9231 62.5386C96.7542 62.1677 96.3602 61.5384 96.0563 61.1451C95.7636 60.7405 95.2345 60.1899 94.8968 59.9202C94.5591 59.6505 93.9512 59.2684 93.546 59.0661C93.1407 58.8526 92.4653 58.5717 92.0263 58.4368C91.5197 58.2795 90.8105 58.1671 90.0563 58.1334C89.0769 58.0772 88.7054 58.1109 87.9174 58.3132C87.3884 58.448 86.5779 58.7402 86.1276 58.9762C85.5872 59.2347 84.9794 59.6842 84.4503 60.1787C83.9887 60.6169 83.4484 61.1901 83.2683 61.471C83.0769 61.7519 82.7842 62.2576 82.6154 62.5948C82.4578 62.9319 82.2326 63.4938 82.1426 63.8309C82.0413 64.1681 81.8837 65.2918 81.7824 66.337C81.6923 67.3708 81.6135 69.0902 81.6135 70.1578C81.6135 71.2142 81.6923 73.1021 81.7824 74.3383C81.8724 75.5744 81.9737 76.7656 82.0075 76.9791C82.0413 77.1927 82.1426 78.3614 82.2326 79.5638C82.3227 80.7663 82.4015 82.4182 82.4015 83.2161C82.4015 84.014 82.3227 85.3063 82.2326 86.0817C82.1426 86.8572 81.9737 87.8124 81.8499 88.2169C81.7261 88.6215 81.4672 89.1609 81.287 89.4306C81.0957 89.6891 80.7242 90.0599 80.4653 90.251C80.1951 90.4308 79.7336 90.6668 79.4184 90.7567C79.1144 90.8466 78.6754 90.914 78.4615 90.914C78.2477 90.914 77.8199 90.8353 77.5047 90.723C77.0882 90.5881 76.7392 90.3409 76.2101 89.8015C75.7148 89.307 75.3208 88.7676 75.0056 88.1607C74.758 87.6663 74.2627 86.5313 73.925 85.6322C73.576 84.7332 73.0469 83.1712 72.7317 82.1485C72.4278 81.1259 72 79.4627 71.7749 78.4401C71.561 77.4174 71.3021 76.0576 71.212 75.4059C71.1107 74.7541 70.9869 73.664 70.9193 72.9897C70.863 72.3155 70.8067 70.7984 70.818 69.6184C70.818 68.4384 70.863 66.3707 70.9081 65.0109C70.9531 63.6511 70.9531 61.426 70.9081 60.0663C70.8518 58.7065 70.7392 56.9871 70.6379 56.2454C70.5366 55.5037 70.3565 54.3912 70.2214 53.7731C70.0976 53.155 69.7936 52.02 69.546 51.2446C69.2983 50.4692 68.4878 48.3003 67.7448 46.4124C67.0019 44.5244 66.2139 42.4791 66 41.8611C65.7974 41.243 65.4709 40.1529 65.2908 39.4449C65.1107 38.737 64.8405 37.5233 64.7054 36.7479C64.4803 35.5342 64.4465 34.9611 64.4465 32.5337C64.4465 29.8591 64.469 29.6681 64.7617 28.4319C64.9306 27.7239 65.2458 26.735 65.4597 26.2405C65.6848 25.7461 66.0225 25.0606 66.2251 24.7347C66.4165 24.3976 66.9681 23.712 67.4296 23.2176C67.8912 22.7344 68.6229 22.0938 69.0619 21.8129C69.5009 21.5207 70.2326 21.1274 70.6942 20.9363C71.1557 20.734 71.9662 20.4756 72.4953 20.3519C73.0244 20.2171 73.7561 20.071 74.1276 20.0148C74.4991 19.9586 75.3321 19.9137 75.985 19.9024ZM108.529 76.7544C108.563 76.7544 108.574 76.8892 108.552 77.069C108.54 77.2376 108.417 78.0018 108.281 78.7772C108.158 79.5526 107.955 80.6089 107.831 81.1371C107.707 81.6653 107.482 82.5418 107.313 83.1037C107.156 83.6656 106.795 84.6995 106.525 85.4075C106.255 86.1155 105.771 87.1831 105.467 87.7674C105.163 88.3518 104.679 89.1272 104.409 89.4868C104.128 89.8352 103.666 90.3072 103.362 90.5207C103.069 90.7342 102.608 90.9814 102.326 91.0826C102.045 91.1725 101.538 91.2511 101.201 91.2511C100.829 91.2511 100.39 91.1612 100.098 91.0264C99.8386 90.9028 99.4109 90.5881 99.1407 90.3296C98.8705 90.0599 98.5216 89.5655 98.3527 89.2283C98.1839 88.8912 97.97 88.2057 97.8912 87.7112C97.8011 87.2168 97.7111 86.3852 97.6548 84.9243L100.638 82.7216C102.281 81.508 104.713 79.665 106.041 78.6311C107.37 77.5972 108.495 76.7544 108.529 76.7544ZM20.6004 118.671C21.152 118.671 21.6923 118.75 22.1764 118.896C22.5816 119.02 23.1445 119.301 23.4484 119.514C23.7411 119.728 24.1351 120.143 24.3377 120.447C24.5291 120.739 24.7655 121.2 24.8443 121.481C24.9231 121.762 24.9906 122.099 24.9906 122.245C24.9906 122.481 24.9568 122.492 22.4578 122.503L21.9512 122.009C21.5572 121.627 21.3321 121.492 20.9381 121.436C20.5441 121.368 20.3415 121.402 20.0375 121.571C19.8236 121.683 19.531 121.975 19.3959 122.222C19.2158 122.526 19.137 122.852 19.137 123.279C19.1257 123.796 19.1932 123.987 19.4972 124.459C19.7674 124.863 20.3189 125.358 21.4447 126.201C22.3114 126.852 23.3246 127.684 23.6961 128.055C24.0788 128.437 24.5516 129.066 24.788 129.516C25.0131 129.943 25.2833 130.628 25.3734 131.033C25.4747 131.437 25.5535 132.067 25.5535 132.438C25.5535 132.808 25.4747 133.438 25.3734 133.842C25.2833 134.247 25.0131 134.921 24.788 135.359C24.5629 135.786 24.1351 136.382 23.8311 136.674C23.5047 137.011 22.9869 137.36 22.4578 137.607C21.6698 137.978 21.5347 138 20.5103 138C19.4747 138 19.3734 137.978 18.5178 137.562C17.9887 137.304 17.4484 136.944 17.2233 136.697C16.9981 136.449 16.6829 136.034 16.5253 135.753C16.3565 135.472 16.1426 134.944 16.0413 134.573C15.9512 134.202 15.8724 133.764 15.8724 133.28H18.6304L18.7655 133.786C18.8443 134.067 19.0807 134.472 19.272 134.696C19.4747 134.91 19.8236 135.146 20.0375 135.213C20.2514 135.281 20.6116 135.314 20.8255 135.281C21.0394 135.258 21.4109 135.123 21.636 134.989C21.9512 134.809 22.1426 134.562 22.3677 134.101C22.6379 133.516 22.6604 133.359 22.6041 132.55C22.5591 131.887 22.469 131.494 22.2439 131.067C22.0863 130.741 21.7261 130.257 21.4672 129.999C21.197 129.729 20.3752 129.089 19.6323 128.561C18.9006 128.044 18.045 127.381 17.7523 127.1C17.4484 126.819 17.0657 126.369 16.8856 126.088C16.7167 125.807 16.4916 125.335 16.4015 125.021C16.3114 124.717 16.1989 124.189 16.1651 123.874C16.1313 123.549 16.1538 122.942 16.2214 122.526C16.2777 122.099 16.4465 121.514 16.5816 121.2C16.728 120.896 16.9869 120.436 17.167 120.2C17.3583 119.964 17.7298 119.604 18.0113 119.424C18.2927 119.233 18.7992 118.986 19.137 118.885C19.4747 118.772 20.1276 118.683 20.6004 118.671ZM75.3096 118.716C76.3452 118.739 76.863 118.806 77.2795 118.964C77.5835 119.087 78 119.301 78.1801 119.447C78.3602 119.582 78.6867 119.941 78.8893 120.222C79.0919 120.514 79.3621 121.076 79.5084 121.481C79.7561 122.2 79.7561 122.29 79.7561 128.392C79.7561 134.067 79.7448 134.629 79.5535 135.191C79.4409 135.528 79.2045 136.011 79.0356 136.258C78.8668 136.506 78.5291 136.865 78.2814 137.045C78.045 137.236 77.4934 137.528 77.0544 137.697C76.3114 137.989 76.1764 138.012 74.803 137.978C73.576 137.944 73.227 137.888 72.6642 137.663C72.2927 137.517 71.8086 137.236 71.5947 137.045C71.3809 136.843 71.0431 136.36 70.8405 135.966C70.6492 135.573 70.4353 134.966 70.3565 134.629C70.2664 134.191 70.2326 132.247 70.3002 121.706H67.2045V137.776H64.3902V121.706H61.2383V118.896H70.3565L70.3677 121.649L70.5929 121.087C70.7167 120.784 70.9869 120.323 71.1895 120.076C71.3921 119.829 71.8086 119.492 72.1126 119.323C72.4165 119.155 72.9456 118.941 73.2833 118.851C73.7448 118.716 74.2739 118.683 75.3096 118.716ZM73.3846 122.166L73.1144 122.548L73.0469 134.011C73.4522 134.618 73.7448 134.887 73.9587 134.989C74.1951 135.112 74.6116 135.191 75.0281 135.191C75.546 135.191 75.7936 135.135 76.0863 134.944C76.3002 134.798 76.5816 134.539 76.7054 134.37C76.9418 134.056 76.9418 133.932 76.9756 128.471L76.9981 122.885C76.5816 122.076 76.3452 121.818 76.0976 121.683C75.8386 121.548 75.4672 121.481 75.0281 121.481C74.6567 121.492 74.1951 121.559 74.0038 121.638C73.8011 121.728 73.5197 121.964 73.3846 122.166ZM101.201 118.716C102.304 118.75 102.743 118.806 103.227 118.997C103.565 119.132 104.004 119.379 104.206 119.548C104.409 119.716 104.747 120.155 104.972 120.526C105.186 120.896 105.445 121.537 105.535 121.964C105.67 122.582 105.704 123.751 105.704 128.37C105.704 132.674 105.659 134.179 105.546 134.741C105.467 135.146 105.31 135.64 105.208 135.843C105.107 136.034 104.837 136.416 104.612 136.663C104.375 136.921 104.004 137.214 103.79 137.326C103.576 137.438 103.114 137.629 102.777 137.764C102.281 137.955 101.899 138 100.863 138C99.8161 138 99.4221 137.955 98.8368 137.753C98.4315 137.618 97.9024 137.349 97.666 137.157C97.4184 136.978 97.0582 136.517 96.8555 136.146C96.6529 135.775 96.4053 135.168 96.3039 134.798C96.1576 134.224 96.1351 133.202 96.1351 128.313C96.1351 124.433 96.1764 122.297 96.2589 121.908C96.3264 121.582 96.5066 121.087 96.6416 120.807C96.7767 120.526 97.0244 120.155 97.1707 119.964C97.3283 119.773 97.6998 119.492 98.0037 119.323C98.3077 119.155 98.8368 118.941 99.1745 118.851C99.636 118.716 100.165 118.683 101.201 118.716ZM99.2533 122.2C99.0056 122.548 99.0056 122.593 98.9719 128.223C98.9493 133.46 98.9606 133.932 99.1407 134.292C99.2533 134.517 99.5347 134.786 99.7936 134.932C100.12 135.123 100.424 135.191 100.919 135.191C101.415 135.18 101.707 135.112 102.023 134.932C102.281 134.786 102.54 134.505 102.664 134.236C102.878 133.809 102.889 133.494 102.889 128.336C102.889 122.897 102.889 122.885 102.642 122.38C102.473 122.054 102.248 121.807 101.989 121.683C101.741 121.559 101.336 121.481 100.919 121.481C100.525 121.481 100.086 121.559 99.8724 121.672C99.6698 121.773 99.3884 122.009 99.2533 122.2ZM115.722 118.705C116.623 118.739 116.904 118.795 117.512 119.076C117.985 119.289 118.413 119.604 118.773 119.997C119.077 120.312 119.426 120.795 119.538 121.065C119.662 121.323 119.797 121.75 119.944 122.492H117.242L116.927 122.099C116.735 121.852 116.432 121.638 116.083 121.514C115.655 121.368 115.475 121.357 115.126 121.458C114.901 121.537 114.585 121.739 114.428 121.93C114.27 122.121 114.101 122.458 114.034 122.694C113.977 122.919 113.921 123.223 113.921 123.369C113.921 123.504 114 123.807 114.101 124.043C114.191 124.268 114.428 124.627 114.63 124.841C114.833 125.043 115.576 125.65 116.285 126.189C116.994 126.718 117.929 127.482 118.345 127.886C118.773 128.291 119.268 128.842 119.448 129.122C119.629 129.403 119.91 130.01 120.068 130.471C120.315 131.168 120.371 131.516 120.371 132.438C120.371 133.382 120.326 133.696 120.079 134.404C119.91 134.865 119.629 135.472 119.448 135.753C119.268 136.034 118.852 136.506 118.514 136.82C118.188 137.124 117.602 137.517 117.208 137.686C116.612 137.955 116.364 138 115.463 138C114.608 138 114.293 137.944 113.64 137.697C113.099 137.483 112.66 137.202 112.233 136.809C111.782 136.393 111.501 136 111.231 135.404C111.006 134.921 110.814 134.303 110.713 133.28H113.583V133.595C113.583 133.764 113.719 134.112 113.887 134.382C114.079 134.663 114.383 134.955 114.653 135.078C114.901 135.202 115.227 135.303 115.385 135.303C115.542 135.303 115.846 135.247 116.06 135.191C116.274 135.123 116.623 134.91 116.826 134.708C117.062 134.483 117.265 134.123 117.377 133.73C117.497 133.318 117.535 132.906 117.49 132.494C117.445 132.157 117.332 131.628 117.22 131.314C117.107 130.988 116.803 130.516 116.499 130.19C116.218 129.887 115.306 129.145 114.484 128.561C113.651 127.976 112.739 127.257 112.435 126.965C112.143 126.661 111.771 126.178 111.614 125.864C111.456 125.56 111.253 125.009 111.163 124.661C111.073 124.301 110.994 123.762 110.994 123.447C110.994 123.144 111.039 122.605 111.107 122.267C111.174 121.93 111.343 121.402 111.478 121.087C111.625 120.784 111.94 120.301 112.188 120.031C112.424 119.761 112.852 119.413 113.133 119.256C113.415 119.087 113.865 118.896 114.146 118.817C114.439 118.739 115.103 118.683 115.722 118.705ZM126.867 118.716C127.756 118.75 128.465 118.829 128.78 118.941C129.062 119.031 129.535 119.334 129.839 119.593C130.199 119.919 130.503 120.335 130.762 120.863C130.976 121.312 131.189 121.986 131.257 122.436C131.336 122.942 131.37 125.245 131.336 128.898C131.302 133.775 131.28 134.651 131.122 135.135C131.021 135.449 130.762 135.955 130.559 136.258C130.356 136.573 129.962 136.978 129.681 137.169C129.4 137.349 128.814 137.618 128.386 137.764C127.689 138 127.43 138.023 126.248 137.978C125.156 137.944 124.762 137.888 124.221 137.663C123.85 137.517 123.355 137.214 123.118 137C122.882 136.775 122.533 136.292 122.353 135.921C122.173 135.55 121.97 135 121.914 134.685C121.835 134.337 121.812 131.808 121.824 127.942C121.857 121.874 121.857 121.75 122.105 121.144C122.24 120.807 122.555 120.301 122.792 120.02C123.039 119.739 123.478 119.391 123.782 119.244C124.086 119.087 124.582 118.896 124.897 118.817C125.257 118.728 125.955 118.694 126.867 118.716ZM124.795 122.38C124.57 122.762 124.559 122.964 124.525 127.886C124.503 131.291 124.525 133.224 124.615 133.674C124.683 134.078 124.829 134.449 124.987 134.618C125.122 134.764 125.403 134.955 125.595 135.034C125.797 135.123 126.248 135.191 126.585 135.191C126.923 135.191 127.34 135.123 127.508 135.034C127.689 134.944 127.936 134.753 128.071 134.607C128.195 134.472 128.364 134.146 128.443 133.899C128.533 133.584 128.555 131.887 128.533 128.055C128.499 122.773 128.499 122.649 128.263 122.267C128.128 122.054 127.835 121.784 127.61 121.683C127.351 121.548 126.946 121.481 126.495 121.481C125.944 121.481 125.696 121.537 125.403 121.739C125.189 121.874 124.919 122.166 124.795 122.38ZM164.15 118.683C164.769 118.671 165.231 118.739 165.726 118.907C166.12 119.042 166.649 119.289 166.908 119.469C167.178 119.649 167.516 119.964 167.662 120.166C167.809 120.357 168.034 120.739 168.169 121.009C168.293 121.267 168.439 121.706 168.574 122.492L165.985 122.503L165.478 122.009C165.129 121.661 164.837 121.481 164.522 121.425C164.184 121.368 163.959 121.391 163.621 121.548C163.362 121.672 163.081 121.919 162.957 122.155C162.833 122.369 162.698 122.751 162.653 122.998C162.619 123.245 162.63 123.627 162.687 123.841C162.743 124.054 162.946 124.436 163.148 124.672C163.351 124.92 164.218 125.65 165.084 126.302C165.951 126.954 166.942 127.763 167.28 128.111C167.617 128.448 168.09 129.089 168.315 129.516C168.552 129.954 168.811 130.662 168.901 131.089C169.002 131.516 169.081 132.157 169.081 132.494C169.081 132.831 169.002 133.438 168.901 133.842C168.811 134.247 168.54 134.921 168.315 135.348C168.09 135.775 167.64 136.382 167.336 136.685C166.976 137.056 166.48 137.393 165.951 137.629C165.22 137.967 165.039 138 164.094 138C163.283 138 162.923 137.955 162.439 137.753C162.101 137.618 161.606 137.371 161.336 137.191C161.077 137.023 160.672 136.641 160.435 136.348C160.199 136.045 159.895 135.517 159.76 135.168C159.625 134.809 159.478 134.236 159.343 133.28H160.773C162.135 133.28 162.214 133.292 162.214 133.505C162.214 133.629 162.304 133.921 162.428 134.157C162.54 134.382 162.788 134.708 162.991 134.887C163.182 135.056 163.531 135.225 163.756 135.258C163.992 135.303 164.33 135.292 164.522 135.258C164.713 135.213 165.028 135.078 165.22 134.966C165.467 134.82 165.692 134.517 165.895 134.101C166.154 133.528 166.188 133.348 166.143 132.606C166.098 132.033 165.996 131.561 165.794 131.145C165.636 130.808 165.287 130.302 165.017 130.033C164.747 129.763 163.835 129.055 163.002 128.448C162.169 127.841 161.246 127.1 160.942 126.774C160.649 126.459 160.289 125.92 160.131 125.583C159.974 125.245 159.794 124.627 159.726 124.212C159.625 123.65 159.625 123.223 159.715 122.605C159.794 122.076 159.985 121.47 160.221 120.975C160.458 120.492 160.807 120.02 161.099 119.75C161.37 119.514 161.797 119.211 162.056 119.087C162.304 118.952 162.687 118.817 162.901 118.772C163.114 118.728 163.677 118.694 164.15 118.683ZM175.497 118.716C176.432 118.739 177.073 118.817 177.411 118.941C177.692 119.042 178.109 119.267 178.345 119.435C178.593 119.604 178.942 119.997 179.133 120.301C179.336 120.615 179.606 121.189 179.741 121.593C180 122.312 180 122.38 180 128.392C180 133.966 179.977 134.517 179.786 135.078C179.674 135.416 179.527 135.809 179.46 135.955C179.381 136.09 179.133 136.416 178.897 136.663C178.672 136.921 178.3 137.214 178.086 137.326C177.872 137.438 177.411 137.629 177.073 137.764C176.578 137.955 176.195 138 175.159 138C174.113 138 173.719 137.955 173.133 137.753C172.728 137.618 172.199 137.349 171.962 137.157C171.715 136.978 171.355 136.517 171.152 136.146C170.949 135.775 170.702 135.168 170.6 134.798C170.454 134.213 170.432 133.258 170.454 127.999C170.488 122.447 170.51 121.818 170.69 121.312C170.803 121.009 171.084 120.503 171.31 120.2C171.546 119.896 171.974 119.514 172.289 119.334C172.593 119.166 173.133 118.941 173.471 118.84C173.932 118.716 174.462 118.683 175.497 118.716ZM173.538 122.335L173.246 122.773C173.246 133.404 173.268 133.932 173.448 134.292C173.55 134.517 173.831 134.786 174.09 134.932C174.417 135.123 174.72 135.191 175.216 135.191C175.711 135.18 176.004 135.112 176.319 134.932C176.578 134.786 176.837 134.505 176.961 134.236C177.174 133.809 177.186 133.494 177.186 128.28C177.186 122.773 177.186 122.773 176.927 122.324C176.78 122.065 176.51 121.784 176.285 121.683C176.038 121.559 175.632 121.481 175.216 121.481C174.754 121.481 174.428 121.548 174.191 121.694C173.989 121.807 173.707 122.099 173.538 122.335ZM0 118.896H2.81426V137.776H0V118.896ZM50.5441 118.896H53.3583V133.674L53.6173 134.168C53.7523 134.438 54.0113 134.775 54.2026 134.899C54.4503 135.067 54.7542 135.146 55.3283 135.168C55.925 135.191 56.2064 135.157 56.4991 135C56.7017 134.887 56.9719 134.618 57.0844 134.404C57.2871 134.033 57.2983 133.663 57.2983 118.896H60.1013L60.0563 134.91L59.7861 135.584C59.606 136.022 59.3133 136.461 58.9418 136.832C58.5704 137.202 58.1313 137.495 57.6923 137.674C57.0844 137.922 56.848 137.944 55.3846 137.944C53.9099 137.944 53.6848 137.922 53.0769 137.674C52.7054 137.517 52.2101 137.214 51.9737 137C51.7261 136.775 51.3659 136.236 51.152 135.809C50.9381 135.382 50.7129 134.719 50.6567 134.348C50.5891 133.955 50.5441 130.55 50.5441 126.291V118.896Z" fill="white"/>
<path d="M67.6545 15.7555C67.0692 15.8116 65.966 15.9802 65.2005 16.1263C64.4463 16.2836 63.2868 16.587 62.6226 16.8006C61.9472 17.0141 60.8778 17.4186 60.2249 17.7108C59.572 17.9918 58.6376 18.4638 58.1423 18.7335C57.647 19.0144 56.8365 19.5313 56.3412 19.8685C55.8459 20.2056 55.0917 20.7787 54.6526 21.1384C54.2136 21.4867 53.3468 22.2958 52.7164 22.9364C52.086 23.577 51.3093 24.431 50.9829 24.8356C50.6677 25.2401 50.1161 25.9931 49.7558 26.5212C49.4069 27.0494 48.889 27.9035 48.6076 28.4317C48.3262 28.9598 47.8984 29.8701 47.6733 30.4545C47.4369 31.0388 47.0992 32.0278 46.9303 32.6458C46.7502 33.2639 46.5476 34.0506 46.4913 34.3877C46.4238 34.7248 46.2999 35.6126 46.2099 36.3543C46.1198 37.096 46.041 38.6019 46.041 39.7032C46.041 40.9169 46.1086 42.1867 46.2211 42.9621C46.3112 43.6476 46.5588 44.8838 46.7615 45.6817C46.9753 46.4796 47.3693 47.7269 47.6395 48.4349C47.9209 49.1429 48.3825 50.1993 48.6752 50.7724C48.9566 51.3343 49.5082 52.3232 49.9022 52.9638C50.2849 53.5931 50.9603 54.5932 51.3994 55.1776C51.8271 55.762 52.6489 56.7734 53.2117 57.4252C53.7746 58.077 54.889 59.2344 55.677 60.0098C56.4763 60.7853 57.7146 61.909 58.4238 62.5046C59.1329 63.089 60.3487 64.0442 61.1254 64.6173C61.9022 65.1905 63.1179 66.0558 63.8271 66.5278C64.5363 66.9998 66.011 67.9213 67.0917 68.573C68.1723 69.2248 69.4556 69.9665 69.9397 70.225L70.8065 70.6857L70.7952 67.9325C68.7577 66.4491 67.5532 65.5388 66.8102 64.9432C66.0673 64.3476 64.9303 63.3924 64.2774 62.8193C63.6245 62.2462 62.5438 61.2348 61.8797 60.583C61.2042 59.9312 60.1686 58.8299 59.5607 58.1556C58.9528 57.4813 58.0635 56.4138 57.5795 55.7957C57.0954 55.1776 56.4087 54.2449 56.0598 53.7167C55.7108 53.1885 55.0917 52.2108 54.7089 51.5253C54.3149 50.8511 53.7521 49.761 53.4594 49.1092C53.1667 48.4574 52.7502 47.3786 52.5363 46.6931C52.3224 46.0188 52.0523 45.1085 51.9622 44.6703C51.8609 44.232 51.7033 43.3555 51.6132 42.7037C51.5232 42.0519 51.4444 40.9393 51.4444 40.2313C51.4444 39.5234 51.5232 38.3884 51.6132 37.7028C51.7033 37.0286 51.9059 35.9835 52.0523 35.3991C52.2099 34.8147 52.4688 33.9494 52.6264 33.4887C52.7952 33.0279 53.268 31.9379 53.6958 31.0726C54.1123 30.2072 54.7089 29.1172 55.0016 28.6564C55.2943 28.1957 55.8009 27.4652 56.1161 27.0269C56.4425 26.5999 57.0279 25.8695 57.4219 25.4087C57.8159 24.9592 58.5926 24.1838 59.1555 23.6893C59.7183 23.2061 60.5964 22.5094 61.1254 22.1498C61.6545 21.7901 62.4875 21.2732 62.9829 20.9923C63.4782 20.7226 64.3675 20.2955 64.9528 20.037C65.5382 19.7898 66.5513 19.4302 67.2042 19.2392C67.8572 19.0594 68.6451 18.8458 68.9491 18.7784C69.2643 18.7222 69.8947 18.5986 70.3562 18.5199C70.8853 18.43 72.1123 18.3851 73.6208 18.3851C75.5795 18.3963 76.2999 18.4413 77.3919 18.6436C78.1348 18.7784 79.3506 19.0706 80.0935 19.2841C80.8365 19.5089 81.8722 19.8572 82.4012 20.082C82.9303 20.2955 83.8759 20.745 84.5176 21.0822C85.148 21.4193 85.6883 21.6441 85.7221 21.5766C85.7558 21.5204 85.6433 21.3519 85.4744 21.217C85.3168 21.0709 84.7765 20.6664 84.2699 20.2955C83.7633 19.9359 82.874 19.3628 82.2887 19.0144C81.7033 18.666 80.6564 18.1379 79.981 17.8344C79.3056 17.5198 78.1461 17.0815 77.4256 16.8455C76.6939 16.5983 75.4782 16.2836 74.7239 16.1375C73.9585 15.9802 72.754 15.8004 72.0448 15.7442C71.3356 15.6768 70.2999 15.6318 69.7371 15.6318C69.1742 15.6431 68.2399 15.6993 67.6545 15.7555ZM81.8384 75.3269C81.8384 75.5854 81.8834 75.8551 81.9284 75.9226C81.9735 75.9787 82.8178 76.3721 83.8084 76.7879C84.799 77.1924 86.9378 78.0353 88.5701 78.6533C90.1911 79.2827 91.6095 79.7884 91.7221 79.7884C91.8909 79.7884 91.8909 79.7771 91.7446 79.631C91.6545 79.5411 90.7877 79.1253 89.8309 78.7095C88.874 78.2825 86.7127 77.2486 85.0354 76.3945C83.3581 75.5405 81.951 74.8437 81.9172 74.8437C81.8722 74.8437 81.8384 75.0572 81.8384 75.3157V75.3269Z" fill="#C7EAFF"/>
<path fill-rule="evenodd" clip-rule="evenodd" d="M7.35122 118.952L9.07355 123.615C10.0304 126.178 10.8747 128.493 10.976 128.762C11.066 129.021 11.2011 129.234 11.2574 129.234C11.3362 129.234 11.37 127.436 11.37 118.896H14.0717V137.775L11.3137 137.719L9.72646 133.392C8.84841 131.01 8.00413 128.695 7.83527 128.257C7.67768 127.807 7.49756 127.436 7.43002 127.436C7.35122 127.436 7.31745 129.234 7.31745 137.775L4.55948 137.719L4.52571 128.448C4.51445 123.346 4.52571 119.109 4.55948 119.03C4.6045 118.929 4.95347 118.896 7.35122 118.952ZM25.5538 118.896H34.672V121.705H31.5201V137.775H28.7058V121.705H25.5538V118.896ZM35.7977 118.896H38.612V137.775H35.7977V118.896ZM40.2893 118.896H49.5313L49.475 121.649L46.2668 121.705V137.775H43.5651V121.705L40.3568 121.649L40.2893 118.896ZM87.5576 118.918C90.0454 118.963 90.2705 118.974 90.9009 119.233C91.3625 119.412 91.7677 119.693 92.1955 120.12C92.5445 120.469 92.9835 121.031 93.1749 121.368C93.3662 121.705 93.6814 122.435 93.8615 122.997C94.0529 123.559 94.2893 124.492 94.4019 125.076C94.537 125.84 94.5932 126.739 94.5932 128.223C94.5932 129.684 94.537 130.617 94.4019 131.369C94.3006 131.954 94.0867 132.842 93.9178 133.336C93.7602 133.831 93.5126 134.46 93.3775 134.741C93.2312 135.022 92.9047 135.527 92.6458 135.865C92.3869 136.202 92.0154 136.617 91.824 136.786C91.6214 136.943 91.1599 137.224 90.1129 137.719H84.8221L84.7884 128.448C84.7771 123.346 84.7884 119.109 84.8221 119.03C84.8784 118.907 85.4075 118.884 87.5576 118.918ZM87.5801 134.966C88.976 134.966 89.5388 134.898 89.7415 134.819C89.9441 134.73 90.2931 134.46 90.5069 134.224C90.7321 133.988 91.0248 133.482 91.1599 133.111C91.3062 132.74 91.4863 131.954 91.5764 131.369C91.6664 130.763 91.7452 129.459 91.7452 128.335C91.7452 127.211 91.6664 125.908 91.5764 125.301C91.4976 124.717 91.3175 123.953 91.1824 123.615C91.0585 123.278 90.8221 122.806 90.6645 122.57C90.5182 122.346 90.1918 122.053 89.9441 121.93C89.5951 121.761 89.2687 121.705 88.537 121.705H87.5801V134.966ZM133.07 118.884L139.531 118.952L140.263 119.311C140.657 119.502 141.175 119.851 141.389 120.098C141.614 120.334 141.929 120.75 142.087 121.031C142.256 121.312 142.469 121.918 142.571 122.379C142.695 122.93 142.728 123.469 142.695 123.919C142.65 124.312 142.492 124.964 142.334 125.38C142.177 125.807 141.873 126.414 141.659 126.728C141.445 127.054 141.074 127.459 140.826 127.627C140.578 127.807 140.376 128.009 140.376 128.077C140.376 128.155 140.95 130.324 141.67 132.887C142.379 135.449 142.965 137.606 142.965 137.663C142.965 137.73 142.413 137.775 140.15 137.775L140.004 137.236C139.914 136.943 139.351 134.898 137.618 128.672H135.873V137.775H133.059L133.07 118.884ZM135.862 125.863C138.045 125.863 138.383 125.818 138.766 125.638C139.115 125.47 139.295 125.301 139.464 124.941C139.61 124.627 139.689 124.222 139.689 123.784C139.689 123.334 139.61 122.964 139.464 122.66C139.34 122.413 139.104 122.11 138.935 121.986C138.676 121.806 138.406 121.761 137.257 121.727L135.884 121.694L135.862 125.863ZM144.203 118.873L147.434 118.918C150.62 118.952 150.676 118.952 151.284 119.233C151.621 119.39 152.128 119.727 152.409 119.986C152.691 120.233 153.051 120.682 153.22 120.986C153.389 121.289 153.603 121.862 153.693 122.267C153.794 122.66 153.873 123.222 153.873 123.503C153.873 123.773 153.794 124.312 153.704 124.683C153.603 125.054 153.366 125.683 153.186 126.088C152.961 126.56 152.612 127.043 151.509 128.11L152.803 132.83C153.513 135.426 154.098 137.595 154.098 137.663C154.098 137.73 153.558 137.775 151.284 137.775L151.182 137.404C151.137 137.202 150.563 135.157 148.751 128.672H147.006V137.775H144.192L144.203 118.873ZM147.006 125.852C149.179 125.852 149.516 125.807 149.899 125.627C150.259 125.458 150.439 125.279 150.597 124.93C150.743 124.627 150.822 124.2 150.833 123.773C150.833 123.289 150.766 122.964 150.574 122.604C150.417 122.312 150.169 122.031 149.933 121.907C149.606 121.739 149.291 121.694 148.267 121.694H147.006V125.852ZM155.336 118.884H158.15V137.764H155.336V118.884Z" fill="white"/>
<path d="M29.156 39.8721C29.156 39.8159 29.1109 39.7822 29.0547 39.7822C28.9984 39.7822 28.5481 40.2542 28.064 40.8273C27.5687 41.3892 26.9383 42.1646 26.6569 42.5355C26.3755 42.9063 25.8126 43.7155 25.4074 44.3335C25.0021 44.9516 24.3717 46.0417 24.0115 46.7497C23.64 47.4576 23.1335 48.5702 22.8745 49.222C22.6269 49.8738 22.2441 51.0088 22.0303 51.7505C21.8164 52.4922 21.535 53.7058 21.3999 54.4475C21.276 55.1892 21.1184 56.5041 21.0622 57.3694C20.9946 58.347 21.0059 59.6282 21.0622 60.7407C21.1297 61.7296 21.276 63.1231 21.3999 63.8311C21.5237 64.5391 21.7939 65.7977 22.0077 66.6181C22.2216 67.4272 22.6156 68.6746 22.8633 69.3601C23.1222 70.0568 23.595 71.2143 23.9102 71.9223C24.2366 72.6303 24.8895 73.9226 25.3849 74.7879C25.8689 75.6532 26.6456 76.9231 27.1072 77.5974C27.5687 78.2716 28.2441 79.2381 28.6269 79.7326C28.9984 80.227 29.7188 81.1148 30.2141 81.6992C30.7094 82.2835 31.6213 83.3174 32.2404 83.9917C32.8708 84.666 34.0077 85.801 34.7845 86.5089C35.5612 87.2282 36.7995 88.3182 37.5425 88.9363C38.2854 89.5544 39.5575 90.5433 40.3567 91.1389C41.156 91.7345 42.5068 92.6785 43.3398 93.2404C44.1729 93.791 45.6138 94.7125 46.5481 95.2632C47.4712 95.8251 49.1485 96.769 50.2629 97.3534C51.3774 97.949 53.0997 98.8143 54.0903 99.2638C55.0809 99.7246 56.747 100.455 57.8051 100.893C58.8633 101.32 60.383 101.916 61.1822 102.208C61.9815 102.5 63.3999 102.995 64.3342 103.298C65.2573 103.602 66.8107 104.074 67.7676 104.343C68.7244 104.613 70.2216 105.018 71.0884 105.231C71.9552 105.445 73.5537 105.804 74.6344 106.029C75.7151 106.254 77.4937 106.58 78.5744 106.759C79.655 106.928 81.3774 107.186 82.4017 107.31C83.4261 107.445 85.1147 107.625 86.1729 107.715C87.231 107.805 89.4486 107.928 91.1259 107.996C93.2423 108.074 95.0659 108.074 97.1485 107.996C98.792 107.939 100.965 107.805 101.989 107.703C103.013 107.614 104.578 107.434 105.479 107.31C106.379 107.186 107.719 106.984 108.462 106.861C109.205 106.737 110.499 106.478 111.332 106.299C112.165 106.119 113.64 105.759 114.597 105.512C115.554 105.254 117.231 104.759 118.312 104.399C119.392 104.04 120.912 103.5 121.689 103.186C122.466 102.871 123.783 102.309 124.616 101.927C125.449 101.556 126.743 100.905 127.486 100.5C128.229 100.095 129.366 99.4324 130.019 99.0278C130.672 98.6233 131.685 97.9602 132.27 97.5444C132.856 97.1287 133.925 96.3195 134.634 95.7352C135.344 95.1508 136.559 94.0495 137.336 93.2741C138.113 92.4987 139.171 91.3412 139.689 90.6894C140.218 90.0376 141.04 88.9026 141.535 88.1609C142.019 87.4192 142.818 86.0032 143.302 85.0143C143.798 84.0254 144.417 82.5308 144.698 81.6992C144.968 80.8676 145.329 79.5752 145.475 78.8335C145.633 78.0918 145.813 77.0018 145.88 76.4174C145.936 75.833 146.027 74.8441 146.06 74.226C146.105 73.608 146.072 72.3493 146.004 71.4166C145.936 70.4951 145.779 69.1466 145.655 68.4386C145.531 67.7306 145.261 66.4832 145.047 65.6853C144.845 64.8874 144.439 63.6176 144.169 62.8759C143.899 62.1342 143.46 61.0778 143.212 60.5159C142.953 59.9541 142.492 59.0101 142.188 58.4145C141.873 57.8076 141.557 57.2907 141.501 57.257C141.445 57.2233 141.389 57.2345 141.389 57.2795C141.389 57.3356 141.569 57.9313 141.794 58.6055C142.008 59.2798 142.334 60.5721 142.514 61.4712C142.694 62.3702 142.897 63.7075 142.976 64.4492C143.055 65.2808 143.088 66.5731 143.043 67.8205C143.01 69.0679 142.897 70.3378 142.751 71.1357C142.627 71.8436 142.39 72.9337 142.233 73.5518C142.064 74.1699 141.76 75.1588 141.546 75.7431C141.321 76.3275 140.826 77.4738 140.432 78.2716C140.038 79.0695 139.261 80.4181 138.709 81.2497C138.158 82.0813 137.291 83.25 136.796 83.8344C136.3 84.4187 135.242 85.5425 134.454 86.3179C133.655 87.0933 132.496 88.1272 131.876 88.6216C131.257 89.1161 130.267 89.8466 129.681 90.2624C129.096 90.6669 127.97 91.3861 127.171 91.8581C126.383 92.3301 125.021 93.0718 124.132 93.5101C123.254 93.9484 121.745 94.6451 120.788 95.0384C119.831 95.443 118.087 96.0835 116.905 96.4769C115.723 96.8702 113.955 97.3871 112.965 97.6343C111.974 97.8928 110.432 98.2412 109.531 98.4322C108.631 98.612 107.235 98.8705 106.436 98.9941C105.636 99.1177 104.06 99.32 102.946 99.4436C101.831 99.5673 100.087 99.7246 99.0622 99.792C98.0378 99.8482 95.8427 99.9044 94.1654 99.9044C92.4881 99.9044 90.3154 99.8482 89.3248 99.792C88.3342 99.7358 86.6907 99.601 85.6663 99.5111C84.6419 99.4099 82.7395 99.1852 81.4449 98.9941C80.1503 98.8143 78.0453 98.4547 76.7732 98.2075C75.5012 97.9603 73.4524 97.4995 72.2141 97.1848C70.9759 96.8814 69.0734 96.3532 67.9927 96.0273C66.9121 95.6902 65.2348 95.1508 64.2779 94.8137C63.3211 94.4765 61.9252 93.9596 61.1822 93.6674C60.4393 93.3752 58.9759 92.7571 57.9177 92.2964C56.8595 91.8244 55.4411 91.1726 54.7657 90.8355C54.079 90.4871 52.9196 89.8803 52.1766 89.4757C51.4336 89.0712 50.1954 88.3632 49.4186 87.9024C48.6419 87.4417 47.246 86.5539 46.3229 85.9358C45.3886 85.3177 44.0265 84.3513 43.2835 83.7894C42.5406 83.2275 41.3248 82.2611 40.5819 81.643C39.8389 81.0249 38.4543 79.7663 37.4974 78.8335C36.5518 77.912 35.3023 76.6197 34.7282 75.9679C34.1653 75.3161 33.2986 74.2822 32.8145 73.6642C32.3304 73.0461 31.4974 71.8773 30.9571 71.0795C30.428 70.2816 29.6288 68.9555 29.1897 68.1576C28.7395 67.3598 28.1091 66.0674 27.7713 65.292C27.4336 64.5166 26.9496 63.258 26.7019 62.4826C26.443 61.7071 26.1391 60.6733 26.0153 60.1788C25.8914 59.6843 25.6775 58.6505 25.5537 57.8751C25.4074 57.021 25.2948 55.6725 25.2498 54.4475C25.2047 53.1889 25.2385 51.9303 25.3173 51.1324C25.3961 50.4244 25.5762 49.2107 25.7338 48.4353C25.8914 47.6599 26.2404 46.3451 26.5218 45.5135C26.792 44.6819 27.3323 43.3671 27.7038 42.5917C28.0753 41.8163 28.5593 40.906 28.762 40.5689C28.9759 40.2317 29.1447 39.9171 29.156 39.8721Z" fill="#67CAF5"/>
</g>
<defs>
<clipPath id="clip0_287_284">
<rect width="180" height="138" fill="white"/>
</clipPath>
</defs>
</svg>
